<svg xmlns="http://www.w3.org/2000/svg" width="37" height="36" viewBox="0 0 37 36" fill="none"><path d="M31.2638 13.7021L26.2387 5.2507C26.0872 4.99572 25.8381 4.80862 25.5536 4.73617L21.7393 3.76465L14.6414 31.6322L24.0119 34.0188C25.2659 34.3382 26.5407 33.581 26.8601 32.327L31.3879 14.5498C31.4604 14.2654 31.4152 13.9571 31.2638 13.7021Z" fill="#497696"></path><path d="M23.9378 34.3095L14.5675 31.9229C14.4071 31.8821 14.3103 31.7192 14.3512 31.5587L21.449 3.69117C21.4899 3.53071 21.6528 3.43395 21.8132 3.47481L25.6278 4.44638C25.9884 4.53822 26.3046 4.77574 26.496 5.09828L31.5214 13.5496C31.7126 13.8724 31.7699 14.264 31.6781 14.6243L27.1502 32.4015C26.7907 33.8133 25.3495 34.6691 23.9378 34.3095ZM15.0057 31.4163L24.0856 33.729C25.177 34.0069 26.2917 33.3451 26.5697 32.2537L31.0975 14.4764C31.1504 14.2689 31.1169 14.0424 31.0063 13.8555L25.9809 5.40421C25.8698 5.21712 25.6874 5.07981 25.4799 5.02695L21.9557 4.12932L15.0057 31.4163Z" fill="#497696"></path><path d="M29.7602 13.6598L25.1185 31.884C24.7991 33.1381 23.5243 33.8953 22.2703 33.5759L3.5584 28.81C2.30438 28.4906 1.54715 27.2158 1.86655 25.9618L7.80805 2.63432C8.12745 1.38026 9.40223 0.623034 10.6563 0.942434L24.2591 4.40708L29.7602 13.6598Z" fill="white"></path><path d="M22.1962 33.8661L3.48461 29.1003C2.07287 28.7407 1.21669 27.2997 1.57626 25.888L7.51778 2.56042C7.87735 1.14867 9.3186 0.292567 10.7303 0.652139L24.333 4.11673C24.4101 4.13637 24.476 4.18576 24.5166 4.25405L30.0177 13.5069C30.0582 13.5752 30.0701 13.6567 30.0504 13.7338L25.4087 31.9581C25.0491 33.3698 23.608 34.2257 22.1962 33.8661ZM10.5825 1.23271C9.49106 0.95473 8.37641 1.6166 8.09836 2.70829L2.15683 26.0358C1.87885 27.1273 2.54107 28.2417 3.63249 28.5197L22.3441 33.2855C23.4355 33.5635 24.5501 32.9016 24.8281 31.8102L29.4392 13.7061L24.0649 4.66669L10.5825 1.23271Z" fill="#083A5E"></path><path d="M15.1596 29.6037L4.12874 26.7942C3.96829 26.7533 3.87153 26.5904 3.91239 26.4299C3.95326 26.2695 4.11616 26.1727 4.27662 26.2136L15.3075 29.0232C15.468 29.064 15.5647 29.2269 15.5239 29.3874C15.483 29.5478 15.3201 29.6446 15.1596 29.6037Z" fill="#083A5E"></path><path d="M20.1927 6.80199L19.6648 8.87461C19.5391 9.36812 19.035 9.67249 18.5357 9.54532L10.0303 7.379C9.53098 7.25183 9.2339 6.74339 9.3596 6.24988L9.88749 4.17726C10.0147 3.67794 10.5173 3.37938 11.0166 3.50654L19.522 5.67287C20.0213 5.80004 20.3199 6.30267 20.1927 6.80199Z" fill="#5AE4A7"></path><path d="M18.4619 9.83602L9.95629 7.66964C9.30031 7.50256 8.90218 6.83273 9.06933 6.17647L9.59721 4.10392C9.76436 3.44766 10.4345 3.0496 11.0905 3.21668L19.5961 5.38307C20.2521 5.55014 20.6501 6.22026 20.483 6.87652L19.9551 8.94907C19.7879 9.60533 19.1179 10.0031 18.4619 9.83602ZM10.9426 3.79726C10.6064 3.71162 10.2634 3.91558 10.1778 4.25179L9.64991 6.32434C9.56427 6.66055 9.76795 7.00343 10.1042 7.08906L18.6098 9.25545C18.946 9.34108 19.2889 9.13741 19.3745 8.8012L19.9024 6.72865C19.988 6.39244 19.7844 6.04927 19.4482 5.96364L10.9426 3.79726Z" fill="#083A5E"></path><path d="M27.0523 16.1435L15.9574 13.3176C15.7969 13.2767 15.7001 13.1138 15.741 12.9534C15.7819 12.7929 15.9448 12.6962 16.1052 12.737L27.2002 15.5629C27.3606 15.6038 27.4574 15.7667 27.4165 15.9271C27.3757 16.0876 27.2128 16.1843 27.0523 16.1435Z" fill="#083A5E"></path><path d="M14.2641 12.8866L8.07113 11.3093C7.91067 11.2684 7.81391 11.1055 7.85477 10.9451C7.89564 10.7846 8.05855 10.6879 8.219 10.7287L14.412 12.3061C14.5724 12.3469 14.6692 12.5098 14.6283 12.6703C14.5875 12.8307 14.4246 12.9275 14.2641 12.8866Z" fill="#083A5E"></path><path d="M25.6931 19.9218L21.6971 18.904C21.5367 18.8632 21.4399 18.7003 21.4808 18.5398C21.5216 18.3793 21.6845 18.2826 21.845 18.3234L25.841 19.3412C26.0014 19.3821 26.0982 19.545 26.0573 19.7054C26.0164 19.8659 25.8535 19.9627 25.6931 19.9218Z" fill="#083A5E"></path><path d="M20.2456 18.5342L7.08577 15.1823C6.92532 15.1415 6.82856 14.9786 6.86942 14.8181C6.91029 14.6577 7.07319 14.5609 7.23365 14.6018L20.3935 17.9536C20.554 17.9944 20.6507 18.1574 20.6099 18.3178C20.569 18.4783 20.4061 18.575 20.2456 18.5342Z" fill="#083A5E"></path><path d="M24.7074 23.7918L11.8089 20.5066C11.6485 20.4657 11.5517 20.3028 11.5926 20.1423C11.6334 19.9819 11.7963 19.8851 11.9568 19.926L24.8553 23.2112C25.0157 23.2521 25.1125 23.415 25.0716 23.5755C25.0308 23.7359 24.8679 23.8327 24.7074 23.7918Z" fill="#083A5E"></path><path d="M10.3091 20.125L6.09993 19.0529C5.93948 19.0121 5.84272 18.8492 5.88358 18.6887C5.92445 18.5283 6.08735 18.4315 6.24781 18.4724L10.457 19.5444C10.6174 19.5853 10.7142 19.7482 10.6733 19.9087C10.6325 20.0691 10.4695 20.1659 10.3091 20.125Z" fill="#083A5E"></path><path d="M23.7216 27.6631L18.0706 26.2238C17.9102 26.183 17.8134 26.0201 17.8543 25.8596C17.8952 25.6992 18.0581 25.6024 18.2185 25.6433L23.8695 27.0826C24.0299 27.1234 24.1267 27.2863 24.0858 27.4468C24.0449 27.6072 23.882 27.704 23.7216 27.6631Z" fill="#083A5E"></path><path d="M16.4738 25.8169L5.11409 22.9236C4.95364 22.8827 4.85688 22.7198 4.89774 22.5593C4.93861 22.3989 5.10152 22.3021 5.26197 22.343L16.6217 25.2363C16.7822 25.2772 16.8789 25.4401 16.8381 25.6005C16.7972 25.761 16.6343 25.8577 16.4738 25.8169Z" fill="#083A5E"></path><path d="M29.7599 13.6595L23.5187 12.0699C22.8917 11.9102 22.5109 11.2691 22.6721 10.6363L24.2588 4.40674L29.7599 13.6595Z" fill="#DDDDDD"></path><path d="M29.686 13.9501L23.4449 12.3605C22.6573 12.1599 22.1805 11.3535 22.3819 10.5626L23.9686 4.33301C23.9985 4.21564 24.0963 4.12795 24.2161 4.11046C24.3357 4.09354 24.4547 4.15011 24.5164 4.25397L30.0175 13.5068C30.0792 13.6107 30.0723 13.7421 29.9998 13.8392C29.9275 13.9361 29.8034 13.98 29.686 13.9501ZM24.3708 5.18136L22.9625 10.7104C22.8427 11.181 23.1255 11.6609 23.5927 11.7799L29.1326 13.1909L24.3708 5.18136Z" fill="#083A5E"></path><path d="M29.2563 13.5654L32.63 16.6231L24.7268 25.3432L21.3531 22.2856L29.2563 13.5654Z" fill="#5AE4A7"></path><path d="M24.6367 25.6285C24.5897 25.6165 24.5461 25.5933 24.5093 25.5601L21.1376 22.5012C21.015 22.39 21.0059 22.2005 21.1174 22.078L29.0224 13.3637C29.0754 13.3051 29.1502 13.2698 29.2296 13.2659C29.308 13.2617 29.386 13.2894 29.4454 13.3432L32.8171 16.402C32.9397 16.5132 32.9488 16.7027 32.8373 16.8252L24.9323 25.5395C24.8793 25.5982 24.8045 25.6335 24.725 25.6374C24.6951 25.6388 24.6656 25.6358 24.6367 25.6285ZM21.762 22.2588L24.6898 24.9151L32.1926 16.6444L29.2648 13.9882L21.762 22.2588Z" fill="#083A5E"></path><path d="M24.7106 25.3374L21.1313 26.4477C20.8149 26.5463 20.5161 26.2753 20.5836 25.9508L21.3369 22.2769L24.7106 25.3374Z" fill="#DDDDDD"></path><path d="M20.8193 26.746C20.7071 26.7174 20.6017 26.6616 20.512 26.5801C20.3198 26.4056 20.2364 26.1477 20.2899 25.8899L21.0437 22.217C21.0651 22.1117 21.1413 22.0258 21.244 21.9925C21.346 21.9593 21.4591 21.9845 21.5383 22.0553L24.9119 25.1159C24.9914 25.188 25.0263 25.2974 25.0031 25.4026C24.98 25.5075 24.9018 25.592 24.7994 25.6239L21.2196 26.7341C21.0858 26.7758 20.948 26.7787 20.8193 26.746ZM21.5249 22.8522L20.8766 26.0113C20.8632 26.0782 20.8947 26.1182 20.9148 26.1366C20.935 26.1542 20.9783 26.1812 21.0411 26.1619L24.1207 25.2072L21.5249 22.8522Z" fill="#083A5E"></path><path d="M20.8379 24.709L20.5832 25.9512C20.5157 26.2757 20.8145 26.5467 21.1309 26.4481L22.3411 26.0727L20.8379 24.709Z" fill="#083A5E"></path><path d="M34.0915 14.9974L32.6158 16.6241L29.2421 13.5635L30.7178 11.9369C31.1168 11.497 31.7937 11.468 32.2335 11.8671L34.0137 13.4821C34.4536 13.8811 34.4905 14.5575 34.0915 14.9974Z" fill="#283E42"></path><path d="M32.5416 16.9141C32.4946 16.9021 32.451 16.8789 32.4142 16.8457L29.0406 13.7849C28.918 13.6737 28.9089 13.4842 29.0204 13.3616L30.496 11.7352C31.0031 11.176 31.8726 11.1352 32.4347 11.6448L34.215 13.2599C34.4866 13.5065 34.6472 13.8433 34.6665 14.2083C34.6855 14.5748 34.5603 14.9263 34.3129 15.1984L32.8372 16.8251C32.7841 16.8841 32.7094 16.9191 32.6299 16.923C32.6 16.9244 32.5706 16.9214 32.5416 16.9141ZM29.665 13.5424L32.5947 16.2007L33.8697 14.7957C34.0082 14.6429 34.0791 14.4454 34.068 14.2397C34.0571 14.0338 33.9667 13.8435 33.8122 13.7036L32.0319 12.0886C31.717 11.8007 31.2247 11.823 30.9393 12.1378L29.665 13.5424Z" fill="#083A5E"></path><path d="M22.9511 24.0993C22.9052 24.0876 22.8615 24.065 22.8236 24.0309C22.701 23.9197 22.6919 23.7302 22.8034 23.6076L30.709 14.8935C30.8204 14.7713 31.0088 14.7619 31.1321 14.873C31.2547 14.9842 31.2638 15.1737 31.1522 15.2962L23.2467 24.0103C23.1695 24.0951 23.0549 24.1257 22.9511 24.0993Z" fill="#083A5E"></path></svg>