<svg xmlns="http://www.w3.org/2000/svg" width="40" height="40" viewBox="0 0 40 40" fill="none"><g clip-path="url(#clip0_309_180)"><path d="M31.3597 33.6207C31.3107 33.8038 31.2093 33.9728 31.0679 34.1032L27.9305 37.0248C27.7556 37.1966 27.4626 37.1182 27.3969 36.8819L26.14 32.7832C26.0827 32.5996 26.0794 32.4025 26.1284 32.2194L26.7917 31.8364L30.9767 32.9574L31.3597 33.6207Z" fill="#F7E0B0"></path><path d="M34.7225 21.0655L31.3596 33.6206L26.1283 32.2194L29.4912 19.6642L30.1545 19.2812L34.3395 20.4022L34.7225 21.0655Z" fill="#F7CA3C"></path><path d="M35.2831 18.9727L34.7226 21.0652L29.4913 19.664L30.0518 17.5715L30.715 17.1885L34.9001 18.3095L35.2831 18.9727Z" fill="#E4EAEF"></path><path d="M35.8436 16.8801L35.2831 18.9726L30.0518 17.5714L30.6123 15.4789C30.7665 14.9034 31.3634 14.5587 31.9388 14.7129L35.0776 15.5536C35.6531 15.7077 35.9978 16.3047 35.8436 16.8801Z" fill="#EA4458"></path><path d="M29.4062 11.2312C29.4326 11.3841 29.4247 11.539 29.3841 11.6907L22.9146 35.8436C22.7604 36.419 22.1635 36.7637 21.5881 36.6096L1.70912 31.2849C1.13367 31.1308 0.788968 30.5338 0.943104 29.9584L8.50979 1.70935C8.66393 1.1339 9.26086 0.789197 9.8363 0.943334L25.6191 5.17087C25.7709 5.2115 25.9089 5.28213 26.0281 5.38134L29.4062 11.2312Z" fill="#E4EAEF"></path><path d="M29.4064 11.2312L25.8387 10.2756C25.2632 10.1215 24.9185 9.52454 25.0727 8.9491L26.0283 5.38135C26.1294 5.46449 26.2144 5.56575 26.2795 5.6785L29.2746 10.8652C29.3397 10.9779 29.385 11.1021 29.4064 11.2312Z" fill="#B3C1C9"></path><path d="M20.327 9.92077L16.142 8.79978C15.5641 8.645 14.9702 8.98796 14.8155 9.56579L13.6945 13.7508C13.5397 14.3287 13.8826 14.9226 14.4605 15.0773L18.6455 16.1983C19.2234 16.3531 19.8173 16.0102 19.972 15.4323L21.093 11.2473C21.2478 10.6694 20.9048 10.0755 20.327 9.92077Z" fill="#33B89F"></path><path d="M27.4826 37.6282C27.7746 37.7063 28.0803 37.6301 28.3009 37.424L31.4389 34.498C31.653 34.2975 31.8064 34.0431 31.882 33.7606L36.366 17.0204C36.5977 16.1552 36.0822 15.2624 35.217 15.0306L32.0782 14.1899C31.2129 13.9581 30.3202 14.4737 30.0884 15.3389L25.6045 32.0791C25.5288 32.3616 25.5339 32.6584 25.6196 32.9393L26.8749 37.0421C26.9629 37.3308 27.1902 37.5498 27.4816 37.6279L27.4826 37.6282ZM27.8118 36.3993L26.7554 32.9481L30.4513 33.938L27.8118 36.3993ZM29.407 32.537L32.4897 21.0281L34.0591 21.4485L30.9764 32.9573L29.407 32.537ZM30.1543 19.2812L30.4346 18.235L34.6196 19.356L34.3394 20.4022L30.1543 19.2812ZM31.4435 20.7479L28.3608 32.2567L26.7914 31.8364L29.8741 20.3275L31.4435 20.7479ZM31.7985 15.2363L34.9372 16.077C35.226 16.1544 35.3976 16.4515 35.3202 16.7403L34.8999 18.3097L30.7148 17.1887L31.1352 15.6193C31.2125 15.3305 31.5097 15.159 31.7985 15.2363Z" fill="#083A5E"></path><path d="M1.56919 31.8082L21.4481 37.1329C22.3134 37.3647 23.2061 36.8491 23.4379 35.9839L29.9077 11.8299C30.0199 11.4109 29.9624 10.9727 29.7451 10.5972L26.7469 5.40522C26.5301 5.02982 26.1795 4.76043 25.7605 4.64819L9.97662 0.420372C9.11136 0.188607 8.21862 0.704134 7.98686 1.56939L7.00599 5.2313C6.9285 5.5206 7.0997 5.81707 7.389 5.89456C7.67829 5.97205 7.97476 5.80084 8.05225 5.51155L9.03312 1.84964C9.11046 1.56087 9.4076 1.38928 9.69637 1.46663L25.3903 5.67035L24.5495 8.80913C24.3178 9.67439 24.8333 10.5671 25.6986 10.7989L28.8373 11.6396L22.3916 35.7036C22.3143 35.9924 22.0172 36.164 21.7284 36.0866L1.84944 30.7619C1.56067 30.6846 1.38908 30.3875 1.46643 30.0987L7.49175 7.60407C7.56924 7.31478 7.39804 7.01831 7.10875 6.94082C6.81946 6.86333 6.52298 7.03453 6.44549 7.32383L0.420169 29.8184C0.188404 30.6837 0.703931 31.5764 1.56919 31.8082ZM25.5958 9.08938L26.2384 6.6903L28.3779 10.3952L25.9788 9.75263C25.69 9.67528 25.5185 9.37815 25.5958 9.08938Z" fill="#083A5E"></path><path d="M7.3047 18.7673C7.22721 19.0566 7.39842 19.353 7.68771 19.4305L22.3354 23.354C22.6247 23.4315 22.9211 23.2603 22.9986 22.971C23.0761 22.6817 22.9049 22.3852 22.6156 22.3077L7.96795 18.3843C7.67866 18.3068 7.38219 18.478 7.3047 18.7673Z" fill="#083A5E"></path><path d="M6.84737 22.5692L21.495 26.4927C21.7843 26.5702 22.0808 26.3989 22.1583 26.1097C22.2358 25.8204 22.0646 25.5239 21.7753 25.4464L7.12762 21.5229C6.83833 21.4454 6.54186 21.6167 6.46437 21.9059C6.38688 22.1952 6.55808 22.4917 6.84737 22.5692Z" fill="#083A5E"></path><path d="M6.00655 25.7084L20.6542 29.6318C20.9435 29.7093 21.24 29.5381 21.3175 29.2488C21.3949 28.9595 21.2237 28.6631 20.9345 28.5856L6.2868 24.6621C5.99751 24.5846 5.70104 24.7558 5.62355 25.0451C5.54606 25.3344 5.71726 25.6309 6.00655 25.7084Z" fill="#083A5E"></path><path d="M5.16573 28.847L16.6746 31.9298C16.9639 32.0072 17.2604 31.836 17.3379 31.5467C17.4153 31.2575 17.2441 30.961 16.9549 30.8835L5.44598 27.8008C5.15669 27.7233 4.86022 27.8945 4.78273 28.1838C4.70524 28.4731 4.87644 28.7695 5.16573 28.847Z" fill="#083A5E"></path><path d="M11.7421 12.6671C11.4528 12.5896 11.1563 12.7608 11.0788 13.0501C11.0013 13.3394 11.1725 13.6358 11.4618 13.7133L13.1275 14.1595C13.1668 14.6449 13.4222 15.0873 13.823 15.364L13.3768 17.0296C13.2994 17.3189 13.4706 17.6154 13.7599 17.6929C14.0491 17.7704 14.3456 17.5991 14.4231 17.3099L14.8435 15.7405L15.8897 16.0207L15.4694 17.5901C15.3919 17.8794 15.5631 18.1759 15.8524 18.2534C16.1417 18.3308 16.4381 18.1596 16.5156 17.8704L16.936 16.301L17.9823 16.5812L17.5619 18.1506C17.4844 18.4399 17.6556 18.7364 17.9449 18.8139C18.2342 18.8913 18.5307 18.7201 18.6082 18.4308L19.0543 16.7652C19.5397 16.7259 19.9821 16.4704 20.2588 16.0697L21.9244 16.5158C22.2137 16.5933 22.5102 16.4221 22.5877 16.1328C22.6652 15.8435 22.494 15.547 22.2047 15.4696L20.6353 15.0492L20.9155 14.0029L22.4849 14.4233C22.7742 14.5008 23.0707 14.3296 23.1482 14.0403C23.2257 13.751 23.0545 13.4545 22.7652 13.377L21.1958 12.9567L21.476 11.9104L23.0454 12.3308C23.3347 12.4083 23.6312 12.2371 23.7087 11.9478C23.7862 11.6585 23.615 11.362 23.3257 11.2845L21.66 10.8384C21.6207 10.3529 21.3652 9.91055 20.9645 9.63388L21.4106 7.96824C21.4881 7.67895 21.3169 7.38247 21.0276 7.30498C20.7383 7.22749 20.4419 7.3987 20.3644 7.68799L19.944 9.25738L18.8977 8.97713L19.3181 7.40774C19.3956 7.11845 19.2244 6.82198 18.9351 6.74449C18.6458 6.667 18.3493 6.8382 18.2718 7.12749L17.8515 8.69689L16.8052 8.41664L17.2256 6.84725C17.3031 6.55796 17.1319 6.26148 16.8426 6.18399C16.5533 6.1065 16.2568 6.27771 16.1793 6.567L15.7332 8.23265C15.2478 8.27195 14.8054 8.52741 14.5287 8.92819L12.8631 8.48203C12.5738 8.40454 12.2773 8.57575 12.1998 8.86504C12.1223 9.15433 12.2935 9.4508 12.5828 9.52829L14.1522 9.94866L13.8719 10.9949L12.3026 10.5746C12.0133 10.4971 11.7168 10.6683 11.6393 10.9576C11.5618 11.2469 11.733 11.5433 12.0223 11.6208L13.5917 12.0412L13.3115 13.0874L11.7421 12.6671ZM16.0018 9.32277L20.1869 10.4438C20.4756 10.5211 20.6472 10.8183 20.5699 11.107L19.4489 15.2921C19.3715 15.5808 19.0744 15.7524 18.7856 15.6751L14.6006 14.5541C14.3118 14.4767 14.1402 14.1796 14.2176 13.8908L15.3386 9.70578C15.4159 9.41701 15.7131 9.24543 16.0018 9.32277Z" fill="#083A5E"></path></g><defs><clipPath id="clip0_309_180"><rect width="32.4943" height="32.4943" fill="white" transform="translate(8.40723) rotate(14.995)"></rect></clipPath></defs></svg>